<svg width="124" height="24" viewBox="0 0 124 24" fill="none" xmlns="http://www.w3.org/2000/svg">
<path d="M22.2217 0C21.4565 3.06431 19.0636 5.45733 15.9994 6.22253C19.0636 6.98774 21.4565 9.38076 22.2217 12.4451C22.9868 9.38076 25.3798 6.98774 28.444 6.22253C25.3798 5.45733 22.9868 3.06431 22.2217 0Z" fill="black"/>
<path d="M44.443 6.22281L28.7499 21.9165C27.4178 23.2487 25.6092 24 23.7206 24H20.7225C18.8373 24 17.0287 23.2522 15.6931 21.9165L0 6.22281H8.89L15.7801 19.3113C17.0113 21.6487 19.4321 23.1096 22.072 23.1096H22.3746C25.0144 23.1096 27.4387 21.6452 28.6664 19.3113L35.5565 6.22281H44.4465H44.443Z" fill="black"/>
<path d="M52.7822 6.24203H56.8432L62.1159 20.8642L67.5292 6.24203H71.7271L64.1991 23.983H59.9662L52.7861 6.24203H52.7822Z" fill="black"/>
<path d="M70.9683 15.1125C70.9683 10.5594 72.7604 6.242 79.5628 6.242C86.3651 6.242 88.1611 10.5594 88.1611 15.1125C88.1611 19.6655 86.3003 23.9829 79.5323 23.9829C72.7642 23.9829 70.9683 19.6997 70.9683 15.1125ZM79.5323 21.0489C83.5931 21.0489 84.4739 18.4531 84.4739 15.1125C84.4739 11.7718 83.6617 9.17602 79.5666 9.17602C75.4715 9.17602 74.6593 11.8744 74.6593 15.1125C74.6593 18.3505 75.5401 21.0489 79.5323 21.0489Z" fill="black"/>
<path d="M89.6905 6.47781H91.6501L92.4606 8.90813C93.0351 7.7253 94.8578 6.242 98.777 6.242C104.45 6.242 105.565 9.55089 105.565 14.4458V23.9282H101.985V14.1415C101.985 11.0684 101.444 9.24663 97.761 9.24663C94.0777 9.24663 93.3015 11.0342 93.3015 14.1415V23.9282H89.6866L89.6866 6.47781H89.6905Z" fill="black"/>
<path d="M107.208 18.6872C107.208 15.519 109.476 14.102 114.417 13.5967L119.865 13.0573C119.762 10.2233 118.851 9.11018 115.363 9.11018C112.149 9.11018 111.268 10.3904 111.268 12.5482L107.749 12.5824C107.749 9.00761 109.24 6.242 115.328 6.242C122.401 6.242 123.415 9.27734 123.415 13.931V23.9829H121.451L120.708 21.1489C119.896 22.4976 117.494 23.9829 113.906 23.9829C110.319 23.9829 107.208 22.3304 107.208 18.6872ZM114.821 21.1451C118.306 21.1451 119.865 19.3255 119.865 16.3243V15.7849L114.959 16.3243C111.947 16.6624 110.933 17.3006 110.933 18.6493C110.933 20.2334 112.286 21.1451 114.825 21.1451H114.821Z" fill="black"/>
</svg>
