<svg width="60" height="32" viewBox="0 0 60 32" fill="none" xmlns="http://www.w3.org/2000/svg">
<path d="M29.6289 0C28.6087 4.08574 25.4181 7.27641 21.3325 8.29669C25.4181 9.31696 28.6087 12.5076 29.6289 16.5934C30.6492 12.5076 33.8397 9.31696 37.9253 8.29669C33.8397 7.27641 30.6492 4.08574 29.6289 0Z" fill="#F9F8F2"/>
<path d="M59.2574 8.29724L38.3332 29.2221C36.557 30.9983 34.1456 32.0001 31.6274 32.0001H27.6299C25.1164 32.0001 22.705 31.003 20.9242 29.2221L0 8.29724H11.8533L21.0401 25.7486C22.6818 28.865 25.9095 30.8128 29.4293 30.8128H29.8327C33.3526 30.8128 36.5849 28.8604 38.2219 25.7486L47.4087 8.29724H59.262H59.2574Z" fill="#F9F8F2"/>
</svg>
